SplineFontDB: 3.0
FontName: rop
FullName: rop
FamilyName: rop
Weight: Medium
Copyright: Created by norm,,, with FontForge 2.0 (http://fontforge.sf.net)
UComments: "2017-7-30: Created." 
Version: 001.000
ItalicAngle: 0
UnderlinePosition: -100
UnderlineWidth: 50
Ascent: 800
Descent: 200
LayerCount: 2
Layer: 0 0 "Back"  1
Layer: 1 0 "Fore"  0
XUID: [1021 737 502105725 7403884]
FSType: 0
OS2Version: 0
OS2_WeightWidthSlopeOnly: 0
OS2_UseTypoMetrics: 1
CreationTime: 1501449161
ModificationTime: 1501460614
OS2TypoAscent: 0
OS2TypoAOffset: 1
OS2TypoDescent: 0
OS2TypoDOffset: 1
OS2TypoLinegap: 90
OS2WinAscent: 0
OS2WinAOffset: 1
OS2WinDescent: 0
OS2WinDOffset: 1
HheadAscent: 0
HheadAOffset: 1
HheadDescent: 0
HheadDOffset: 1
MarkAttachClasses: 1
DEI: 91125
Encoding: ISO8859-1
UnicodeInterp: none
NameList: Adobe Glyph List
DisplaySize: -24
AntiAlias: 1
FitToEm: 1
WinInfo: 16 16 4
BeginPrivate: 0
EndPrivate
BeginChars: 256 44

StartChar: zero
Encoding: 48 48 0
Width: 1000
VWidth: 0
Flags: HO
LayerCount: 2
Fore
SplineSet
60.6963 -73.6953 m 0
 139.128 18.6982 138.696 144.718 138.696 421.305 c 1
 163.9 539.458 73.2393 731.444 192.696 766.305 c 1
 325.617 811.832 399.972 764.63 505.196 766.305 c 1
 694.589 766.305 817.195 767.669 817.195 725.152 c 1
 822.65 678.305 796.898 689.24 926.57 739.7 c 1
 818.462 820.367 1080.68 781.014 954.696 658.305 c 1
 876.265 565.911 912.696 478.892 912.696 202.305 c 1
 898.68 78.2021 986.225 -129.976 817.195 -204.695 c 1
 504.695 -204.695 l 2
 315.302 -204.695 282.696 -140.212 282.696 -97.6953 c 0
 282.696 -51.3672 228.926 -80.7598 156.696 -136.695 c 0
 52.5293 -217.363 -43.4707 -196.404 60.6963 -73.6953 c 0
825.696 238.305 m 1
 821.034 362.125 824.321 500.11 754.695 508.174 c 1
 564.696 229.305 l 2
 427.196 95.04 354.696 27.8906 354.696 -16.6953 c 1
 508.683 -49.7607 435.197 -155.008 604.696 -97.7607 c 1
 681.558 -60.002 743.646 -176.701 753.696 -52.6953 c 1
 840.99 62.3437 821.549 158.144 825.696 238.305 c 1
754.695 651.739 m 1
 770.593 725.262 487.321 481.113 474.696 676.305 c 1
 389.605 679.746 429.41 568.812 315.696 628.305 c 1
 264.864 336.865 321.119 431.046 315.696 303.121 c 1
 281.083 197.695 197.194 195.762 254.695 82.4365 c 1
 392.654 119.033 458.496 266.278 513.696 373.305 c 1
 651.196 507.57 754.695 607.153 754.695 651.739 c 1
EndSplineSet
Validated: 524321
EndChar

StartChar: one
Encoding: 49 49 1
Width: 1000
VWidth: 0
Flags: HO
LayerCount: 2
Fore
SplineSet
267.982 -146.629 m 5
 446.463 -133.888 496.023 -59.6552 505.297 271.295 c 1
 505.297 668.865 541.414 542.19 402.982 474.371 c 0
 276.803 412.554 240.097 550.307 380.297 663.276 c 2
 536.547 789.18 l 1
 597.099 714.851 727.682 980.686 670.982 336.829 c 1
 690.16 -37.1289 661.23 -119.223 795.982 -152.629 c 1
 854.733 -168.08 674.047 -189.737 536.547 -189.737 c 1
 312.106 -197.607 36.6367 -177.846 267.982 -146.629 c 5
EndSplineSet
Validated: 524321
EndChar

StartChar: two
Encoding: 50 50 2
Width: 1000
VWidth: 0
Flags: HO
LayerCount: 2
Fore
SplineSet
99.5762 -154.62 m 0
 99.5762 -143.062 227.129 25.7363 449.748 177.459 c 1
 652.22 313.001 661.479 341.216 773.157 449.663 c 1
 587.3 776.223 556.487 607.174 419.748 636.459 c 1
 262.299 636.459 219.857 606.898 308.748 492.459 c 1
 686.632 506.732 206.918 293.858 148.766 376.971 c 1
 50.4385 453.988 49.75 473.104 140.329 611.346 c 0
 194.572 694.131 293.088 761.864 359.254 761.864 c 1
 539.171 860.298 1026.97 678.012 974.576 458.482 c 1
 974.576 430.521 803.682 311.696 618.248 162.878 c 1
 539.539 91.7006 427.545 102.288 374.748 -32.541 c 1
 419.241 -109.156 545.4 -35.6768 626.748 -44.541 c 1
 752.017 -46.5801 955.749 566.2 998.705 -80.9092 c 1
 552.701 -165.129 l 2
 307.746 -211.385 99.5762 -166.179 99.5762 -154.62 c 0
EndSplineSet
Validated: 524321
EndChar

StartChar: three
Encoding: 51 51 3
Width: 1000
VWidth: 0
Flags: HO
LayerCount: 2
Fore
SplineSet
120.042 -49.3115 m 0
 49.6328 43.7373 4.50098 154.921 79.0342 88.458 c 1
 361.977 -124.158 569.088 -1.58223 775.034 121.458 c 1
 718.75 148.276 l 1
 409.034 175.458 l 1
 352.09 210.797 231.618 221.396 286.255 300.191 c 1
 290.275 462.474 471.988 379.618 565.002 419.05 c 1
 843.75 537.908 l 1
 687.5 624.896 l 2
 472.235 744.739 295.537 590.9 190.034 460.458 c 0
 110.2 361.752 62.252 511.28 123.751 638.188 c 0
 205.885 807.677 303.42 779.74 619.034 796.458 c 2
 976.034 691.458 l 1
 961.034 451.458 l 1
 926.376 318.472 562.702 342.774 508.701 336.559 c 1
 452.353 333.943 502.621 296.974 620.407 254.404 c 2
 834.564 177.004 l 1
 982.337 6.7535 766.248 2.74902 709.034 -61.542 c 1
 452.652 -257.094 234.806 -200.976 120.042 -49.3115 c 0
EndSplineSet
Validated: 524321
EndChar

StartChar: four
Encoding: 52 52 4
Width: 1000
VWidth: 0
Flags: HO
LayerCount: 2
Fore
SplineSet
482.898 -107.398 m 1
 473.363 86.2471 592.146 141.102 353.813 141.102 c 1
 273.206 147.691 159.643 74.6344 103.813 141.102 c 1
 45.8836 287.328 117.292 356.289 115.079 469.227 c 1
 126.345 797.352 l 1
 94.2869 657.394 614.659 1000.06 239.898 507.602 c 1
 262.858 216.413 177.222 203.602 385.063 203.602 c 0
 592.906 203.602 453.938 384.413 476.898 675.602 c 2
 643.782 797.352 l 1
 655.048 505.06 l 2
 663.521 285.244 625.646 241.097 707.898 219.602 c 1
 1081.82 369.11 838.82 60.481 749.898 57.6016 c 1
 679.896 52.7871 665.766 72.8662 649.025 -62.0234 c 2
 623.818 -265.148 l 1
 617.821 -199.845 231.021 -405.701 482.898 -107.398 c 1
EndSplineSet
Validated: 524325
EndChar

StartChar: five
Encoding: 53 53 5
Width: 1000
VWidth: 0
Flags: HO
LayerCount: 2
Fore
SplineSet
129.405 28.5488 m 0
 42.5098 207.962 76.165 451.651 161.644 344.494 c 0
 214.869 277.767 320.644 75.2988 320.644 47.4941 c 0
 320.644 19.6885 445.519 0 548.644 0 c 0
 726.847 0 791.644 147.013 791.644 272.494 c 0
 791.644 304.43 694.889 299.022 505.826 353.985 c 1
 274.765 259.694 166.609 495.073 162.076 509.558 c 1
 162.076 540.161 145.005 609.688 124.14 664.062 c 0
 91.5908 748.883 147.071 761.392 514.765 752.137 c 2
 943.326 741.349 l 1
 1085 574.314 666.482 634.527 524.644 629.494 c 1
 201.826 599.529 296.75 646.388 344.644 569.494 c 0
 376.367 518.56 632.205 522.685 794.644 470.494 c 0
 957.082 418.304 986.383 155.486 1000 113.494 c 0
 1042.89 -18.7617 621.202 -174.576 416.522 -174.576 c 0
 265.437 -174.576 208.161 -134.056 129.405 28.5488 c 0
EndSplineSet
Validated: 524321
EndChar

StartChar: six
Encoding: 54 54 6
Width: 1000
VWidth: 0
Flags: HO
LayerCount: 2
Fore
SplineSet
199.506 -145.621 m 0
 176.589 -122.705 157.839 84.9521 157.839 315.839 c 0
 157.839 699.017 170.105 738.724 298.464 771.063 c 0
 426.376 803.292 490.395 804.67 390.907 730.168 c 0
 325.922 681.502 291.907 557.034 291.907 436.168 c 4
 291.907 235.563 248.344 344.824 396.907 442.168 c 0
 536.874 533.877 533.125 424.227 683.491 305.949 c 0
 875.149 155.19 893.072 -32.3438 724.447 -122.589 c 0
 588.866 -195.15 263.318 -209.434 199.506 -145.621 c 0
567.907 -10.832 m 0
 708.867 43.2598 733.475 98.5039 576.907 208.168 c 0
 458.407 291.169 555.528 318.408 423.907 232.168 c 0
 336.716 175.036 309.907 136.984 309.907 49.168 c 0
 309.907 -73.8613 336.371 -46.832 486.907 -46.832 c 0
 587.221 -46.832 513.533 -31.6982 567.907 -10.832 c 0
EndSplineSet
Validated: 524321
EndChar

StartChar: seven
Encoding: 55 55 7
Width: 1000
VWidth: 0
Flags: HO
LayerCount: 2
Fore
SplineSet
249.746 -124.788 m 1
 254.547 -70.0888 165.373 147.543 540.166 294.418 c 1
 671.306 473.419 778.602 633.734 778.602 650.674 c 1
 800.669 708.54 352.639 519.015 156.026 533.353 c 1
 -184.83 333.603 202.62 740.6 59.8516 726.576 c 1
 485.415 738.395 l 2
 962.379 751.639 1168.82 949.353 783.026 413.353 c 1
 652.179 -60.9717 152.51 -283.471 249.746 -124.788 c 1
EndSplineSet
Validated: 524325
EndChar

StartChar: eight
Encoding: 56 56 8
Width: 1000
VWidth: 0
Flags: HO
LayerCount: 2
Fore
SplineSet
265.625 -133.184 m 0
 142.692 -83.5791 174.421 125.35 311.493 168.854 c 0
 434.785 207.985 434.77 209.179 308.769 379.604 c 0
 140.218 607.581 202.695 762.924 462.937 762.924 c 0
 803.003 762.924 947.406 464.521 677.297 319.963 c 2
 542.093 247.604 l 1
 680.346 143.32 l 2
 950.811 -60.6914 624.74 -278.09 265.625 -133.184 c 0
605.484 -34.5693 m 4
 641.583 23.8389 591.298 193.031 496.32 198.437 c 1
 518.222 -158.337 224.007 61.7864 275.391 -40.0947 c 1
 331.376 -130.682 550.318 -123.83 605.484 -34.5693 c 4
736.374 544.174 m 0
 722.674 641.345 684.485 592.431 518.484 592.431 c 0
 260.287 592.431 284.241 628.674 458.484 454.431 c 0
 568.498 344.417 482.65 369.646 590.484 436.431 c 0
 663.58 481.699 746.544 472.043 736.374 544.174 c 0
EndSplineSet
Validated: 524321
EndChar

StartChar: nine
Encoding: 57 57 9
Width: 1000
VWidth: 0
Flags: HO
LayerCount: 2
Fore
SplineSet
578.294 -44.6279 m 0
 567.807 190.348 696.402 320.465 592.18 287.386 c 0
 400.891 226.674 164.391 315.507 124.995 462.867 c 0
 80.8418 628.021 228.768 754.449 466.157 754.449 c 0
 719.447 754.449 783.49 628.901 758.281 181.781 c 0
 742.35 -100.789 586.885 -237.133 578.294 -44.6279 c 0
557.294 468.372 m 0
 672.653 541.479 642.701 612.524 503.294 639.372 c 4
 349.963 668.9 356.294 625.762 356.294 555.372 c 0
 356.294 371.816 380.336 356.229 557.294 468.372 c 0
EndSplineSet
Validated: 524321
EndChar

StartChar: a
Encoding: 97 97 10
Width: 1000
VWidth: 0
Flags: HO
LayerCount: 2
Fore
SplineSet
83.4629 -102.457 m 0
 -50.9775 46.0986 -34.3613 252.193 107.463 380.543 c 0
 240.295 500.755 652.695 471.881 761.864 362.712 c 0
 820.197 304.379 836.864 331.493 836.864 484.729 c 2
 836.864 681.747 l 1
 449.463 578.543 l 1
 35.4629 701.543 l 1
 317.463 794.543 l 1
 899.364 750.212 l 1
 898.407 265.837 l 5
 866.91 -19.1649 1158.3 -273.362 843.72 -133.74 c 5
 806.264 -74.6279 777.04 -69.8945 747.238 -118.115 c 0
 676.631 -232.359 199.133 -230.271 83.4629 -102.457 c 0
798.93 15.8369 m 0
 905.295 185.559 771.238 340.513 498.048 363.62 c 0
 147.777 393.247 -42.9736 155.05 164.708 -52.6318 c 0
 276.772 -164.695 715.471 -117.335 798.93 15.8369 c 0
EndSplineSet
Validated: 524321
EndChar

StartChar: z
Encoding: 122 122 11
Width: 1000
VWidth: 0
Flags: HO
LayerCount: 2
Fore
SplineSet
345.551 248.646 m 1
 822.551 629.646 l 1
 408.551 569.646 l 1
 -54.665 298.733 -4.08126 704.139 54.1318 778.566 c 1
 69.9346 794.369 302.046 740.875 570.775 761.578 c 2
 1000 794.646 l 1
 846.551 497.646 l 5
 737.392 377.533 152.464 -67.1608 210.551 -102.354 c 1
 377.96 -116.307 303.326 -81.8406 612.551 0 c 1
 1133.34 667.361 1078.53 -295.906 748.411 -139.84 c 1
 576.536 -169.235 332.601 -229.979 217.161 -196.041 c 1
 164.152 -176.627 80.0581 -202.329 51.5508 -147.354 c 1
 345.551 248.646 l 1
EndSplineSet
Validated: 524321
EndChar

StartChar: y
Encoding: 121 121 12
Width: 1000
VWidth: 0
Flags: HO
LayerCount: 2
Fore
SplineSet
56.4111 0 m 0
 125.161 56.6855 560.661 90.0869 629.411 135.932 c 0
 751.745 217.508 355.003 132.171 152.411 414.932 c 0
 38.5557 573.84 102.693 767.161 119.881 767.161 c 0
 137.068 767.161 179.996 774.102 293.692 615.783 c 1
 372.945 480.046 333.151 802.067 500.411 327.932 c 1
 541.757 376.375 615.297 322.385 632.411 447.932 c 1
 155.055 1015.39 1072.58 751.85 848.411 420.932 c 1
 752.872 190.69 724.206 -174.677 239.411 -146.068 c 1
 78.9268 -239.761 -60.3047 -96.2344 56.4111 0 c 0
EndSplineSet
Validated: 524321
EndChar

StartChar: x
Encoding: 120 120 13
Width: 1000
VWidth: 0
Flags: HO
LayerCount: 2
Fore
SplineSet
144.949 221.551 m 5
 479.817 283.051 l 1
 78.9492 470.551 l 1
 -14.3008 814.301 l 1
 251.324 567.241 l 1
 516.949 320.183 l 1
 782.574 567.242 l 1
 1048.2 814.301 l 1
 936.949 413.551 l 1
 554.081 283.051 l 1
 819.949 230.551 l 1
 1048.2 -248.199 l 1
 782.574 -1.13965 l 1
 516.949 245.919 l 1
 251.324 -1.13965 l 1
 -14.3008 -248.199 l 1
 144.949 221.551 l 5
EndSplineSet
Validated: 524289
EndChar

StartChar: w
Encoding: 119 119 14
Width: 1000
VWidth: 0
Flags: HO
LayerCount: 2
Fore
SplineSet
54.1592 133.67 m 1
 -19.8662 311.796 145.276 761.787 159.159 775.67 c 0
 173.042 789.554 110.96 413.434 170.834 256.657 c 1
 274.021 -33.8843 448.583 3.50176 405.159 235.67 c 1
 454.087 284.598 488.92 311.598 519.159 262.67 c 1
 539.203 65.5179 668.486 -43.3804 825.127 283.929 c 1
 905.582 455.703 742.511 792.318 756.159 778.67 c 4
 769.805 765.021 1040.96 344.066 942.159 148.67 c 1
 970.216 -240.036 970.104 -281.094 578.271 -63.3262 c 1
 502.792 27.6201 484.525 27.9756 387.731 -59.6221 c 1
 256.003 -180.857 0.106445 -338.086 54.1592 133.67 c 1
EndSplineSet
Validated: 524321
EndChar

StartChar: v
Encoding: 118 118 15
Width: 1000
VWidth: 0
Flags: HO
LayerCount: 2
Fore
SplineSet
195.114 85.4863 m 0
 27.2256 500.737 116.081 600.271 279.056 257.876 c 2
 427.43 -53.8447 l 1
 589.513 257.876 l 1
 567.906 487.692 763.668 541.896 754.505 520.645 c 1
 924.28 380.165 579.785 -211.345 419.398 -149.152 c 1
 406.522 -149.152 254.181 -60.6084 195.114 85.4863 c 0
EndSplineSet
Validated: 524321
EndChar

StartChar: u
Encoding: 117 117 16
Width: 1000
VWidth: 0
Flags: HO
LayerCount: 2
Fore
SplineSet
214.665 -143.117 m 1
 223.465 -46.4102 -134.269 -311.394 134.665 270.883 c 1
 134.394 269.897 338.424 754.247 247.556 241.473 c 1
 264.362 176.005 57.4092 -70.6865 180.665 -13.1172 c 1
 260.181 -114.311 339.688 -70.3018 419.208 -108.652 c 1
 483.5 -66.1436 701.08 -107.297 646.665 0 c 1
 764.461 68.4455 638.311 115.266 688.343 190.028 c 1
 459.748 480.822 645.529 445.113 712.665 502.883 c 1
 751.254 417.757 852.258 362.327 816.665 194.883 c 5
 800.49 88.5878 826.665 -43.1173 766.665 -123.117 c 5
 698.108 -166.932 605.64 -164.484 522.665 -163.117 c 1
 334.628 -173.969 239.098 -206.789 214.665 -143.117 c 1
EndSplineSet
Validated: 524321
EndChar

StartChar: t
Encoding: 116 116 17
Width: 1000
VWidth: 0
Flags: HO
LayerCount: 2
Fore
SplineSet
286.813 -19.6543 m 1
 393.855 8.7959 531.16 123.352 492.27 311.388 c 1
 446.454 428.052 409.563 421.769 271.105 430.127 c 1
 32.5281 242.344 84.0373 375.784 72.5635 439.492 c 1
 332.813 492.346 l 1
 445.525 499.114 512.576 537.36 464.813 640.346 c 1
 499.498 694.856 658.094 691.976 658.813 636.346 c 1
 573.762 571.109 556.306 461.961 713.188 465.528 c 1
 702.307 467.176 834.626 447.132 885.063 439.492 c 1
 812.076 450.893 998.359 209.748 710.823 430.127 c 1
 570.564 422.589 567.084 389.545 576.813 276.346 c 0
 605.243 -54.4395 650.653 -181.07 506.813 -173.654 c 1
 463.67 -165.382 -270.286 -69.9551 286.813 -19.6543 c 1
EndSplineSet
Validated: 524325
EndChar

StartChar: s
Encoding: 115 115 18
Width: 1000
VWidth: 0
Flags: HO
LayerCount: 2
Fore
SplineSet
464.309 -25.2891 m 1
 889.639 53.3877 570.839 176.636 163.881 203.959 c 0
 -122.557 223.19 36.3506 376.822 95.8809 531.959 c 1
 223.609 822.039 221.767 643.75 511.881 659.959 c 1
 642.557 635.635 820.613 719.296 914.725 568.182 c 1
 903.79 408.635 549.025 597.586 435.881 575.959 c 5
 237.572 555.957 273.229 449.741 273.881 423.959 c 0
 274.534 398.178 269.881 400.334 269.881 365.959 c 0
 269.881 331.584 317.404 333.959 467.881 333.959 c 0
 638.173 333.959 686.085 343.96 735.881 283.959 c 1
 796.665 158.438 1341.13 -154.24 445.975 -60.1816 c 1
 334.595 -85.3845 260.188 -278.012 102.225 -92.2656 c 1
 55.6729 47.7792 349.51 -51.7648 464.309 -25.2891 c 1
EndSplineSet
Validated: 524321
EndChar

StartChar: r
Encoding: 114 114 19
Width: 1000
VWidth: 0
Flags: HO
LayerCount: 2
Fore
SplineSet
48.9219 148.054 m 1
 42.5811 313.007 -15.2744 579.961 66.9219 766.054 c 1
 219.111 863.742 300.858 638.801 396.922 622.054 c 5
 550.986 551.029 502.669 989.286 656.094 610.715 c 5
 671.008 595.8 691.104 372.4 552.922 349.054 c 1
 479.072 323.025 126.44 678.517 180.729 498.703 c 1
 231.922 301.054 l 1
 217.558 183.771 266.628 -107.027 135.924 -210.063 c 1
 48.9219 148.054 l 1
EndSplineSet
Validated: 524321
EndChar

StartChar: q
Encoding: 113 113 20
Width: 1000
VWidth: 0
Flags: HO
LayerCount: 2
Fore
SplineSet
467.426 -115.678 m 5
 347.634 -95.6627 215.531 -255.999 95.7393 -113.137 c 1
 65.2764 -39.9385 -51.9523 -170.432 44.7393 189.863 c 1
 66.0879 332.721 -106.14 493.672 108.051 713.136 c 1
 99.5712 858.04 322.597 725.808 416.739 747.863 c 1
 537 741.53 626.913 813.927 800.739 747.863 c 1
 1196.38 811.678 754.417 426.182 795.551 311.469 c 1
 795.551 -18.5166 623.883 23.4814 713.739 0 c 5
 1109.7 -95.1962 1112.01 -293.065 467.426 -115.678 c 5
602.739 381.863 m 1
 594.396 490.595 909.904 443.646 695.739 579.863 c 1
 587.079 564.236 670.707 580.887 575.739 570.863 c 1
 480.903 645.212 394.578 576.149 299.739 570.863 c 1
 273.186 494.454 118.736 413.38 248.928 352.435 c 1
 248.438 236.54 142.628 183.215 230.739 87.8633 c 1
 289.344 25.4014 354.881 36.6279 440.739 36.8633 c 1
 527.79 23.1983 542.049 129.81 629.739 126.863 c 1
 647.545 117.548 598.522 285.113 602.739 381.863 c 1
EndSplineSet
Validated: 524321
EndChar

StartChar: p
Encoding: 112 112 21
Width: 1000
VWidth: 0
Flags: HO
LayerCount: 2
Fore
SplineSet
102.771 199.217 m 1
 15.918 398.151 78.9277 545.177 125.771 697.804 c 1
 215.979 791.971 357.117 767.312 426.771 736.217 c 1
 662.988 756.027 684.699 493.747 685.771 501.304 c 1
 685.771 329.252 608.029 322.804 410.445 322.804 c 1
 96.7041 399.702 295.865 290.755 261.771 6.91309 c 1
 230.559 -208.417 -151.188 -259.524 102.771 199.217 c 1
502.771 510.304 m 0
 502.771 607.525 534.604 628.39 388.771 628.39 c 0
 242.938 628.39 268.771 616.525 268.771 519.304 c 4
 268.771 422.081 221.938 438.304 367.771 438.304 c 0
 513.604 438.304 502.771 413.081 502.771 510.304 c 0
EndSplineSet
Validated: 524321
EndChar

StartChar: o
Encoding: 111 111 22
Width: 1000
VWidth: 0
Flags: HO
LayerCount: 2
Fore
SplineSet
64.8516 194.808 m 1
 63.2725 319.643 -4.81463 438.276 94.8516 576.808 c 1
 162.067 685.033 299.435 570.477 396.852 582.808 c 1
 521.418 602.063 600.371 595.295 796.851 575.933 c 1
 871.507 423.192 840.238 324.561 838.852 200.808 c 1
 852.585 84.0273 926.423 29.2781 834.852 -135.192 c 1
 799.514 -183.499 620.715 -149.781 520.852 -161.192 c 1
 391.496 -168.831 288.43 -203.637 70.8516 -137.192 c 1
 -13.9291 -85.7278 74.2227 89.4122 64.8516 194.808 c 1
716.102 218.433 m 1
 741.534 300.882 758.263 329.445 666.852 416.808 c 1
 578.552 483.234 528.206 463.601 434.852 468.433 c 1
 351.433 515.397 331.596 432.822 226.852 382.808 c 1
 185.677 275.665 143.339 295.831 153.602 218.433 c 1
 150.44 129.371 139.136 139.626 208.852 16.8076 c 1
 337.566 -92.8213 338.284 -22.7299 434.852 -31.5674 c 1
 522.772 -22.5627 620.78 -49.373 654.852 42.8076 c 1
 716.58 143.318 721.823 136.691 716.102 218.433 c 1
EndSplineSet
Validated: 524321
EndChar

StartChar: n
Encoding: 110 110 23
Width: 1000
VWidth: 0
Flags: HO
LayerCount: 2
Fore
SplineSet
96.0605 116.737 m 5
 105.004 213.659 -0.0998086 260.632 101.165 397.987 c 5
 189.171 507.751 310.646 390.2 413.665 397.987 c 1
 511.219 389.132 688.313 486.8 726.165 397.987 c 1
 769.417 298.549 726.321 210.927 731.271 116.737 c 1
 736.375 -164.513 l 1
 568.417 -203.065 533.857 -121.969 603.665 52.7373 c 1
 627.665 254.737 l 1
 600.724 331.355 475.164 261.38 405.665 274.737 c 1
 335.315 254.574 151.181 278.689 167.665 224.737 c 1
 185.26 154.584 202.162 143.069 216.065 58.7373 c 1
 208.489 -30.1631 298.645 -226.238 90.9551 -164.513 c 1
 96.0605 116.737 l 5
EndSplineSet
Validated: 524321
EndChar

StartChar: m
Encoding: 109 109 24
Width: 1000
VWidth: 0
Flags: HWO
LayerCount: 2
Fore
SplineSet
83.3232 142.911 m 1
 97.0977 246.911 -2.87891 383.661 94.9277 487.661 c 1
 223.25 530.66 315.167 515.6 418.928 508.911 c 1
 764.322 509.411 l 1
 978.288 382.057 752.729 272.041 777.428 152.161 c 1
 738.565 63.1097 933.227 -184.521 697.428 -139.839 c 1
 623.428 80.1611 l 2
 625.04 289.755 650.409 392.911 558.962 392.911 c 0
 494.96 392.911 484.767 173.13 467.428 130.161 c 5
 462.111 96.2291 183.605 -27.5659 374.612 314.786 c 5
 371.898 357.755 314.969 392.911 248.103 392.911 c 0
 150.528 392.911 198.313 298.098 178.928 84.9111 c 1
 434.625 -320.344 57.998 -15.8525 78.2178 -138.339 c 1
 83.3232 142.911 l 1
EndSplineSet
Validated: 524325
EndChar

StartChar: l
Encoding: 108 108 25
Width: 1000
VWidth: 0
Flags: HO
LayerCount: 2
Fore
SplineSet
31.1797 454.824 m 1
 99.9355 774.022 l 1
 365.827 807.292 232.909 443.678 190.18 262.824 c 1
 171.357 125.71 l 1
 275.889 71.3604 42.4355 74.9932 340.18 -22.1758 c 1
 455.625 -67.0283 1095.26 227.611 874.18 -136.176 c 1
 394.18 -154.176 l 5
 301.887 -123.623 75.418 -223.001 64.1797 -112.176 c 1
 -35.6211 -23.8809 53.6035 313.815 31.1797 454.824 c 1
EndSplineSet
Validated: 524321
EndChar

StartChar: k
Encoding: 107 107 26
Width: 1000
VWidth: 0
Flags: HO
LayerCount: 2
Fore
SplineSet
103.802 321.871 m 5
 0 375.871 34.6025 407.55 34.8018 432.871 c 0
 36.6504 668.188 112.715 883.806 124.802 768.871 c 0
 147.965 548.62 121.295 449.507 274.802 507.871 c 1
 781.54 831.762 668.906 632.506 700.802 642.871 c 1
 717.276 626.395 598.795 443.459 508.802 420.871 c 0
 418.808 398.284 235.17 382.519 235.17 361.401 c 0
 235.17 340.284 424.531 292.618 526.802 123.871 c 2
 706.802 -173.129 l 1
 287.117 -246.463 610.484 -53.1389 445.802 -35.1289 c 1
 180.72 296.809 l 1
 250.42 -160.105 l 5
 -256.377 -308.057 154.116 31.3916 103.802 321.871 c 5
EndSplineSet
Validated: 524321
EndChar

StartChar: j
Encoding: 106 106 27
Width: 1000
VWidth: 0
Flags: HO
LayerCount: 2
Fore
SplineSet
36.0166 0.211914 m 0
 36.0166 146.045 111.545 444.587 208.767 444.587 c 0
 277.517 444.587 436.767 246.883 436.767 213.587 c 0
 436.767 180.29 243.829 82.8242 192.267 102.61 c 1
 0.159792 -4.68471 233.849 90.581 220.767 -14.4131 c 1
 220.767 -128.636 159.793 -175.579 358.767 -38.4131 c 2
 580.767 15.5869 l 1
 559.767 534.587 l 1
 641.667 640.603 330.06 632.215 712.767 762.587 c 5
 742.465 639.559 1051.17 619.593 874.172 420.212 c 5
 823.767 -0 l 1
 460.767 -110.413 l 2
 147.243 -242.664 36.0166 -185.395 36.0166 0.211914 c 0
EndSplineSet
Validated: 524321
EndChar

StartChar: i
Encoding: 105 105 28
Width: 1000
VWidth: 0
Flags: HO
LayerCount: 2
Fore
SplineSet
404.528 72.7754 m 1
 404.998 244.65 589.537 347.759 603.902 252.755 c 0
 618.268 157.751 594.737 -24.374 579.902 -101.245 c 1
 582.505 -154.026 242.859 -321.776 404.528 72.7754 c 1
366.902 519.755 m 5
 369.38 605.979 279.769 718.281 417.902 666.525 c 5
 532.486 666.525 675.902 617.422 675.902 525.755 c 0
 675.902 434.088 691.486 408.755 576.902 408.755 c 0
 462.319 408.755 366.902 428.088 366.902 519.755 c 5
429.902 525.755 m 0
 429.902 560.13 466.465 537.755 414.902 537.755 c 0
 363.34 537.755 408.902 561.755 393.902 531.755 c 0
 378.53 501.009 375.34 537.755 426.902 537.755 c 0
 478.465 537.755 429.902 491.38 429.902 525.755 c 0
EndSplineSet
Validated: 524325
EndChar

StartChar: h
Encoding: 104 104 29
Width: 1000
VWidth: 0
Flags: HO
LayerCount: 2
Fore
SplineSet
15.3379 287.023 m 0
 15.1113 579.212 232.063 921.526 255.338 794.023 c 2
 234.338 389.023 l 1
 534.338 437.023 l 5
 606.345 329.117 766.065 621.878 773.257 217.898 c 5
 760.383 118.94 852.827 19.9824 762.338 -78.9766 c 1
 636.338 -144.977 l 1
 588.338 0 l 1
 585.338 308.023 l 1
 446.878 365.997 385.732 301.805 280.026 308.023 c 1
 210.338 281.023 l 1
 237.338 -141.977 l 2
 246.682 -288.361 15.5645 -5.16406 15.3379 287.023 c 0
EndSplineSet
Validated: 524321
EndChar

StartChar: g
Encoding: 103 103 30
Width: 1000
VWidth: 0
Flags: HO
LayerCount: 2
Fore
SplineSet
24.3643 8.68652 m 1
 24.3643 167.02 48.6699 196.187 180.614 196.187 c 0
 266.552 196.187 336.864 170.694 336.864 139.538 c 0
 336.864 108.381 280.614 97.5986 211.864 115.577 c 0
 115.939 140.662 196.614 143.706 196.614 42.1865 c 1
 205.164 -92.9033 71.1279 87.2871 457.614 -62.5635 c 1
 685.614 -41.5635 l 1
 774.364 102.437 l 1
 718.614 267.437 l 1
 430.614 321.187 l 1
 121.614 270.437 l 1
 86.8643 539.937 l 1
 196.614 747.437 l 1
 461.864 758.687 l 1
 889.614 715.188 l 5
 1050.53 523.829 872.344 406.455 889.614 246.437 c 5
 835.614 -116.563 l 1
 430.614 -178.813 l 1
 88.6143 -134.563 l 1
 24.3643 8.68652 l 1
685.614 528.437 m 0
 685.614 674.27 767.281 624.437 475.614 624.437 c 1
 230.256 582.948 268.349 589.013 273.364 438.687 c 1
 273.364 292.854 159.947 453.437 451.614 453.437 c 0
 743.281 453.437 685.614 382.604 685.614 528.437 c 0
EndSplineSet
Validated: 524325
EndChar

StartChar: f
Encoding: 102 102 31
Width: 1000
VWidth: 0
Flags: HO
LayerCount: 2
Fore
SplineSet
104.077 138.917 m 0
 59.0049 630.327 107.87 713.136 442.92 713.136 c 0
 596.687 713.136 735.573 692.042 751.557 666.261 c 0
 767.54 640.479 914.032 433.349 745.39 445.261 c 0
 502.642 462.406 241.39 676.814 241.39 601.261 c 5
 259.29 567.162 54.2991 278.453 307.998 444.744 c 5
 448.623 417.658 l 1
 454.725 350.835 470.46 178.542 469.39 190.261 c 1
 -81.3472 690.111 354.288 -167.088 312.344 -115.125 c 1
 134.531 -193.114 l 1
 104.077 138.917 l 0
EndSplineSet
Validated: 524325
EndChar

StartChar: e
Encoding: 101 101 32
Width: 1000
VWidth: 0
Flags: HO
LayerCount: 2
Fore
SplineSet
12.7119 191.949 m 1
 12.7119 566.949 l 1
 405.837 674.949 l 1
 858.837 581.949 l 1
 825.212 379.449 l 2
 794.498 194.481 933.837 177.344 558.837 177.344 c 1
 563.355 177.432 144.206 169.76 183.837 23.9492 c 1
 183.837 -121.601 234.89 -144.731 603.837 11.9492 c 2
 924.837 44.9492 l 1
 822.837 -159.051 l 1
 54.8369 -153.051 l 1
 12.7119 191.949 l 1
681.837 416.949 m 5
 715.459 526.777 428.188 549.142 432.837 548.949 c 1
 130.754 548.949 168.837 511.798 168.837 401.949 c 0
 168.837 292.101 130.754 298.949 432.837 298.949 c 0
 734.92 298.949 681.837 307.101 681.837 416.949 c 5
EndSplineSet
Validated: 524325
EndChar

StartChar: d
Encoding: 100 100 33
Width: 1000
VWidth: 0
Flags: HO
LayerCount: 2
Fore
SplineSet
63.1992 85.3643 m 1
 120.199 369.365 l 1
 366.199 396.365 l 1
 615.199 390.365 l 1
 615.199 747.365 l 2
 615.199 895.216 941.978 687.259 894.199 405.365 c 2
 804.199 -125.635 l 5
 423.199 -174.576 l 1
 63.1992 -164.635 l 1
 -34.3994 -45.2656 73.2383 -1.67578 63.1992 85.3643 c 1
704.449 75.4238 m 0
 704.449 255.979 694.032 262.924 423.199 262.924 c 0
 152.366 262.924 165.199 252.92 165.199 72.3652 c 0
 165.199 -108.191 125.366 -65.6348 396.199 -65.6348 c 0
 667.032 -65.6348 704.449 -105.132 704.449 75.4238 c 0
EndSplineSet
Validated: 524321
EndChar

StartChar: c
Encoding: 99 99 34
Width: 1000
VWidth: 0
Flags: HO
LayerCount: 2
Fore
SplineSet
45 302.123 m 1
 44.6523 441.067 101.654 629.712 100.574 626.123 c 1
 514.574 692.123 l 1
 937.574 542.123 l 1
 532.574 524.123 l 1
 229.574 533.123 l 5
 182.398 435.277 222.771 613.907 110.699 311.123 c 5
 198.824 58.7383 l 1
 355.074 40.9873 511.324 89.7207 667.574 23.123 c 1
 910.574 101.123 l 1
 532.574 -146.367 l 1
 19.5742 62.123 l 1
 30.9697 160.365 45.9678 310.467 45 302.123 c 1
EndSplineSet
Validated: 524325
EndChar

StartChar: b
Encoding: 98 98 35
Width: 1000
VWidth: 0
Flags: HO
LayerCount: 2
Fore
SplineSet
73.7656 408.846 m 0
 81.0693 743.133 265.073 910.882 280.25 718.415 c 2
 131.849 330.721 l 1
 412.25 397.415 l 1
 829.25 400.415 l 1
 831.319 334.438 956.239 259.923 857.75 177.971 c 1
 994.639 33.9199 721.362 -15.21 778.25 -112.585 c 5
 410.541 -112.417 400.762 -119.063 184.5 -121.779 c 5
 62.5 -106.779 l 1
 73.7656 408.846 l 0
799.25 124.415 m 0
 799.25 267.933 775.583 340.415 517.25 340.415 c 0
 258.917 340.415 125 255.489 125 111.971 c 0
 125 -31.5479 147.917 -44.2793 406.25 -44.2793 c 0
 664.583 -44.2793 799.25 -19.1035 799.25 124.415 c 0
EndSplineSet
Validated: 524321
EndChar

StartChar: quotedbl
Encoding: 34 34 36
Width: 1000
VWidth: 0
Flags: H
LayerCount: 2
Fore
SplineSet
204.966 553.64 m 0
 225.438 606.987 211.053 650.636 173 650.636 c 0
 134.947 650.636 103.813 678.761 103.813 713.136 c 0
 103.813 747.511 146.001 775.636 197.563 775.636 c 0
 301.621 775.636 326.747 554.912 229.529 494.828 c 0
 194.101 472.932 183.623 498.02 204.966 553.64 c 0
EndSplineSet
Validated: 33
EndChar

StartChar: quotesingle
Encoding: 39 39 37
Width: 1000
VWidth: 0
Flags: H
LayerCount: 2
Fore
SplineSet
204.966 553.64 m 0
 225.438 606.987 211.053 650.636 173 650.636 c 0
 134.947 650.636 103.813 678.761 103.813 713.136 c 0
 103.813 747.511 146.001 775.636 197.563 775.636 c 0
 301.621 775.636 326.747 554.912 229.529 494.828 c 0
 194.101 472.932 183.623 498.02 204.966 553.64 c 0
EndSplineSet
Validated: 33
EndChar

StartChar: parenleft
Encoding: 40 40 38
Width: 1000
VWidth: 0
Flags: H
LayerCount: 2
Fore
SplineSet
0 295.763 m 1
 0 795.763 l 1
 234.375 785.761 l 2
 465.132 775.912 465.614 775.369 265.625 750.551 c 2
 62.5 725.343 l 1
 62.5 295.763 l 1
 62.5 -133.817 l 1
 265.625 -159.025 l 2
 465.614 -183.844 465.132 -184.387 234.375 -194.235 c 2
 0 -204.237 l 1
 0 295.763 l 1
EndSplineSet
Validated: 33
EndChar

StartChar: parenright
Encoding: 41 41 39
Width: 1000
VWidth: 0
Flags: H
LayerCount: 2
Fore
SplineSet
721.663 -154.788 m 2
 924.788 -129.58 l 1
 924.788 300 l 1
 924.788 729.58 l 1
 721.663 754.788 l 2
 521.674 779.606 522.156 780.149 752.913 789.998 c 2
 987.288 800 l 1
 987.288 300 l 1
 987.288 -200 l 1
 752.913 -189.998 l 2
 522.156 -180.149 521.674 -179.606 721.663 -154.788 c 2
EndSplineSet
Validated: 33
EndChar

StartChar: comma
Encoding: 44 44 40
Width: 1000
VWidth: 0
Flags: H
LayerCount: 2
Fore
SplineSet
232.786 -152.104 m 0
 348.972 -117.853 385.004 -4.02539 279.661 -4.02539 c 0
 245.286 -4.02539 217.161 38.1621 217.161 89.7246 c 0
 217.161 141.287 261.217 183.475 315.062 183.475 c 0
 470.261 183.475 406.595 -155.869 248.411 -171.777 c 0
 150.974 -181.576 147.528 -177.238 232.786 -152.104 c 0
EndSplineSet
Validated: 33
EndChar

StartChar: bracketleft
Encoding: 91 91 41
Width: 1000
VWidth: 0
Flags: H
LayerCount: 2
Fore
SplineSet
0 295.763 m 1
 0 795.763 l 1
 234.375 785.761 l 2
 465.132 775.912 465.614 775.369 265.625 750.551 c 2
 62.5 725.343 l 1
 62.5 295.763 l 1
 62.5 -133.817 l 1
 265.625 -159.025 l 2
 465.614 -183.844 465.132 -184.387 234.375 -194.235 c 2
 0 -204.237 l 1
 0 295.763 l 1
EndSplineSet
Validated: 33
EndChar

StartChar: bracketright
Encoding: 93 93 42
Width: 1000
VWidth: 0
Flags: H
LayerCount: 2
Fore
SplineSet
721.663 -154.788 m 2
 924.788 -129.58 l 1
 924.788 300 l 1
 924.788 729.58 l 1
 721.663 754.788 l 2
 521.674 779.606 522.156 780.149 752.913 789.998 c 2
 987.288 800 l 1
 987.288 300 l 1
 987.288 -200 l 1
 752.913 -189.998 l 2
 522.156 -180.149 521.674 -179.606 721.663 -154.788 c 2
EndSplineSet
Validated: 33
EndChar

StartChar: period
Encoding: 46 46 43
Width: 1000
VWidth: 0
Flags: HO
LayerCount: 2
Fore
SplineSet
166.927 -55.0498 m 0
 166.927 28.2832 208.593 69.9502 291.927 69.9502 c 0
 375.26 69.9502 416.927 28.2832 416.927 -55.0498 c 0
 416.927 -138.383 375.26 -180.05 291.927 -180.05 c 0
 208.593 -180.05 166.927 -138.383 166.927 -55.0498 c 0
354.427 -89.9883 m 0
 354.427 -74.8301 326.302 -45.0449 291.927 -23.7998 c 0
 257.552 -2.55469 229.427 -14.958 229.427 -51.3613 c 0
 229.427 -87.7646 257.552 -117.55 291.927 -117.55 c 0
 326.302 -117.55 354.427 -105.147 354.427 -89.9883 c 0
EndSplineSet
Validated: 33
EndChar
